A new truck by the name of Rubble joins Bob and the Can-Do Crew to help
build an amusement park of truly epic proportions. In the process, the dedicated
crew makes a mammoth-sized discovery




General
Complete name : F:\BOB THE BUILDER THE BIG DINO DIG\BOB THE BUILDER THE BIG DINO DIG MOVIE [H.264 MP4][RoB]PR3DATOR RG.mp4
Format : MPEG-4
Format profile : Base Media
Codec ID : isom
File size : 773 MiB
Duration : 1h 0mn
Overall bit rate : 1 778 Kbps
Encoded date : UTC 2011-07-05 18:09:46
Tagged date : UTC 2011-07-05 18:09:46
Writing application : Lavf51.12.1

Video
ID : 1
Format : AVC
Format/Info : Advanced Video Codec
Format profile : Baseline@L1.0
Format settings, CABAC : No
Format settings, ReFrames : 1 frame
Format settings, GOP : M=1, N=12
Codec ID : avc1
Codec ID/Info : Advanced Video Coding
Duration : 1h 0mn
Bit rate mode : Variable
Bit rate : 1 608 Kbps
Width : 720 pixels
Height : 404 pixels
Display aspect ratio : 16:9
Frame rate mode : Constant
Frame rate : 29.970 fps
Color space : YUV
Chroma subsampling : 4:2:0
Bit depth : 8 bits
Scan type : Progressive
Bits/(Pixel*Frame) : 0.184
Stream size : 699 MiB (90%)
Encoded date : UTC 2011-07-05 18:09:46
Tagged date : UTC 2011-07-05 18:09:46

Audio
ID : 2
Format : AAC
Format/Info : Advanced Audio Codec
Format profile : LC
Codec ID : 40
Duration : 1h 0mn
Bit rate mode : Variable
Bit rate : 165 Kbps
Channel(s) : 2 channels
Channel positions : Front: L R
Sampling rate : 48.0 KHz
Compression mode : Lossy
Stream size : 71.9 MiB (9%)
Encoded date : UTC 2011-07-05 18:09:46
Tagged date : UTC 2011-07-05 18:09:46
 
http://img819.imageshack.us/img819/999/bobthebuilderthebigdino.jpg
 
http://img3.imageshack.us/img3/6803/bscap0000gx.jpg
 
http://img19.imageshack.us/img19/8498/bscap0001yof.jpg
 
http://img221.imageshack.us/img221/2153/bscap0002hc.jpg
 
http://img11.imageshack.us/img11/6305/bscap0004hq.jpg